<?xml version="1.0" encoding="utf-8"?>
<!-- Generator: Adobe Illustrator 16.0.0, SVG Export Plug-In . SVG Version: 6.00 Build 0)  -->
<!DOCTYPE svg PUBLIC "-//W3C//DTD SVG 1.1//EN" "http://www.w3.org/Graphics/SVG/1.1/DTD/svg11.dtd">
<svg version="1.1" id="Layer_1" xmlns="http://www.w3.org/2000/svg" xmlns:xlink="http://www.w3.org/1999/xlink" x="0px" y="0px"
	 width="252.089px" height="39px" viewBox="0 0 252.089 39" enable-background="new 0 0 252.089 39" xml:space="preserve">
<g>
	<path fill="#FFFFFF" d="M1.983,25.453V3.126h7.901c2.21,0,3.852,0.448,4.927,1.347c1.074,0.898,1.612,2.261,1.612,4.087
		c0,1.504-0.334,2.729-1,3.678c-0.666,0.949-1.569,1.479-2.709,1.59c1.281,0.222,2.278,0.8,2.989,1.733
		c0.712,0.934,1.067,2.132,1.067,3.595c0,2.189-0.54,3.787-1.619,4.791c-1.08,1.004-2.791,1.506-5.132,1.506H1.983z M6.479,12.177
		h2.634c0.948,0,1.65-0.242,2.104-0.727s0.681-1.23,0.681-2.24c0-0.848-0.24-1.498-0.719-1.952
		c-0.479-0.454-1.168-0.681-2.066-0.681H6.479V12.177z M6.479,21.957h2.225c1.19,0,2.063-0.255,2.619-0.765
		c0.555-0.51,0.833-1.31,0.833-2.399c0-1.08-0.272-1.877-0.817-2.392S9.96,15.628,8.84,15.628H6.479V21.957z"/>
	<path fill="#FFFFFF" d="M20.268,25.453V3.126h12.064v3.451h-7.356v5.328h6.767v3.436h-6.767v6.509h7.629v3.603H20.268z"/>
	<path fill="#FFFFFF" d="M55.264,25.453l-1.195-4.965H47.59l-1.181,4.965h-4.692l6.297-22.326h5.949l6.205,22.326H55.264z
		 M48.453,17.052h4.768l-2.316-9.673L48.453,17.052z"/>
	<path fill="#FFFFFF" d="M77.666,3.126c2.635,0,4.453,0.494,5.457,1.482c1.004,0.989,1.506,2.73,1.506,5.223
		c0,1.16-0.134,2.188-0.4,3.08c-0.268,0.894-0.658,1.603-1.174,2.127c-0.504,0.524-1.092,0.898-1.763,1.12
		c-0.672,0.222-1.778,0.333-3.323,0.333h-0.271h-2.664v8.961h-4.875V3.126H77.666z M74.973,6.638v6.266h1.543
		c1.353,0,2.253-0.227,2.702-0.681s0.674-1.292,0.674-2.513c0-1.16-0.21-1.963-0.628-2.406c-0.419-0.444-1.198-0.666-2.339-0.666
		H74.973z"/>
	<path fill="#FFFFFF" d="M97.874,25.453l-1.195-4.965H90.2l-1.181,4.965h-4.692l6.297-22.326h5.949l6.205,22.326H97.874z
		 M91.063,17.052h4.768l-2.316-9.673L91.063,17.052z"/>
	<path fill="#FFFFFF" d="M111.739,3.126c2.734,0,4.591,0.413,5.57,1.24c0.979,0.828,1.468,2.326,1.468,4.496
		c0,1.716-0.25,2.997-0.749,3.845c-0.5,0.848-1.335,1.418-2.506,1.71c1.332,0.273,2.24,0.745,2.725,1.416s0.727,1.965,0.727,3.883
		c0,0.121-0.007,0.308-0.022,0.56c-0.015,0.252-0.022,0.438-0.022,0.56c0,1.02,0.048,1.896,0.144,2.627s0.245,1.395,0.446,1.99
		h-4.858c-0.212-0.727-0.328-2.2-0.349-4.42c-0.01-0.757-0.02-1.342-0.029-1.756c-0.031-1.11-0.237-1.893-0.621-2.346
		c-0.384-0.455-1.024-0.682-1.922-0.682h-1.953v9.203h-4.678V3.126H111.739z M109.786,12.768h1.15c1.251,0,2.121-0.237,2.611-0.712
		c0.489-0.474,0.734-1.301,0.734-2.482c0-1.14-0.223-1.919-0.666-2.338c-0.444-0.419-1.308-0.629-2.589-0.629h-1.241V12.768z"/>
	<path fill="#FFFFFF" d="M126.074,25.453V6.789h-5.086V3.126h15v3.662h-5.116v18.664H126.074z"/>
	<path fill="#FFFFFF" d="M153.055,25.8c-1.028,0-1.988-0.136-2.881-0.408c-0.892-0.272-1.605-0.646-2.14-1.12
		c-0.917-0.797-1.575-1.952-1.973-3.466c-0.398-1.514-0.598-3.77-0.598-6.767c0-2.321,0.121-4.132,0.363-5.435
		c0.241-1.301,0.64-2.361,1.194-3.178c0.544-0.828,1.333-1.464,2.366-1.908c1.033-0.443,2.246-0.666,3.637-0.666
		c1.068,0,2.047,0.14,2.934,0.417c0.888,0.277,1.613,0.663,2.178,1.157c0.877,0.777,1.505,1.854,1.883,3.232
		c0.378,1.377,0.567,3.413,0.567,6.107c0,2.806-0.121,4.861-0.363,6.168c-0.242,1.308-0.65,2.39-1.225,3.247
		c-0.545,0.827-1.336,1.471-2.375,1.93C155.585,25.571,154.396,25.8,153.055,25.8z M150.156,14.236c0,3.29,0.206,5.46,0.619,6.51
		c0.412,1.049,1.152,1.574,2.219,1.574c1.107,0,1.87-0.508,2.287-1.521c0.418-1.015,0.627-3.277,0.627-6.789
		c0-3.108-0.206-5.167-0.619-6.176c-0.412-1.009-1.157-1.514-2.234-1.514c-1.097,0-1.854,0.515-2.271,1.544
		C150.365,8.893,150.156,11.017,150.156,14.236z"/>
	<path fill="#FFFFFF" d="M164.218,25.453V3.126h11.504v3.451h-6.796v5.328h6.479v3.436h-6.479v10.111H164.218z"/>
	<path fill="#FFFFFF" d="M190.3,25.453V6.789h-5.086V3.126h15v3.662h-5.116v18.664H190.3z"/>
	<path fill="#FFFFFF" d="M207.055,25.453h-4.647V3.126h4.647v8.688h5.086V3.126h4.677v22.326h-4.677v-9.885h-5.086V25.453z"/>
	<path fill="#FFFFFF" d="M220.815,25.453V3.126h4.556v22.326H220.815z"/>
	<path fill="#FFFFFF" d="M228.807,18.566h4.753v0.59c0,1.15,0.194,1.971,0.583,2.46c0.388,0.489,1.037,0.733,1.945,0.733
		c0.716,0,1.283-0.219,1.702-0.658c0.419-0.438,0.628-1.037,0.628-1.793c0-1.061-0.988-2.235-2.967-3.527l-0.287-0.182
		c-1.039-0.676-1.869-1.231-2.49-1.665c-0.62-0.434-1.082-0.792-1.385-1.075c-0.817-0.746-1.377-1.45-1.68-2.111
		c-0.303-0.66-0.455-1.476-0.455-2.444c0-1.867,0.639-3.355,1.915-4.466c1.276-1.109,2.995-1.664,5.154-1.664
		c2.23,0,3.907,0.514,5.033,1.543c1.125,1.029,1.688,2.559,1.688,4.587v0.591h-4.616V9.363c0-1.05-0.189-1.84-0.568-2.369
		c-0.378-0.53-0.945-0.795-1.703-0.795c-0.686,0-1.233,0.207-1.642,0.621c-0.409,0.413-0.613,0.974-0.613,1.68
		c0,1.201,1.292,2.568,3.875,4.102c0.666,0.404,1.181,0.722,1.544,0.954c1.463,0.929,2.479,1.819,3.05,2.672s0.855,1.869,0.855,3.05
		c0,2.17-0.636,3.805-1.907,4.904s-3.153,1.65-5.646,1.65c-2.341,0-4.059-0.522-5.153-1.567c-1.096-1.044-1.643-2.682-1.643-4.911
		c0-0.081,0.005-0.207,0.015-0.379C228.802,18.802,228.807,18.667,228.807,18.566z"/>
	<path fill="#FFFFFF" d="M245.896,25.453v-4.147h3.723v4.147H245.896z"/>
</g>
<polygon fill="#FFFFFF" points="128.488,34.262 133.665,24.779 123.312,24.779 "/>
</svg>
