<?xml version="1.0" encoding="utf-8"?>
<!-- Generator: Adobe Illustrator 16.0.0, SVG Export Plug-In . SVG Version: 6.00 Build 0)  -->
<!DOCTYPE svg PUBLIC "-//W3C//DTD SVG 1.1//EN" "http://www.w3.org/Graphics/SVG/1.1/DTD/svg11.dtd">
<svg version="1.1" id="Layer_1" xmlns="http://www.w3.org/2000/svg" xmlns:xlink="http://www.w3.org/1999/xlink" x="0px" y="0px"
	 width="85px" height="170px" viewBox="0 0 85 170" enable-background="new 0 0 85 170" xml:space="preserve">
<g>
	<polygon fill="#E2E2E2" points="67.493,109.841 17.507,109.841 42.5,131.116 	"/>
	<polygon fill="#E2E2E2" points="16.145,110.426 16.145,144.803 36.337,127.614 	"/>
	<polygon fill="#E2E2E2" points="47.892,128.271 42.5,132.861 37.364,128.488 37.393,128.556 37.28,128.556 17.507,145.388 
		67.493,145.388 47.765,128.595 	"/>
	<polygon fill="#E2E2E2" points="48.664,127.614 68.855,144.803 68.855,110.426 	"/>
</g>
<g>
	<polygon fill="#FFFFFF" points="67.493,24.601 17.507,24.601 42.5,45.876 	"/>
	<polygon fill="#FFFFFF" points="16.145,25.186 16.145,59.562 36.337,42.374 	"/>
	<polygon fill="#FFFFFF" points="47.892,43.031 42.5,47.621 37.364,43.248 37.393,43.315 37.28,43.315 17.507,60.147 67.493,60.147 
		47.765,43.354 	"/>
	<polygon fill="#FFFFFF" points="48.664,42.374 68.855,59.562 68.855,25.186 	"/>
</g>
</svg>
