<?xml version="1.0" encoding="utf-8"?>
<!-- Generator: Adobe Illustrator 16.0.0, SVG Export Plug-In . SVG Version: 6.00 Build 0)  -->
<!DOCTYPE svg PUBLIC "-//W3C//DTD SVG 1.1//EN" "http://www.w3.org/Graphics/SVG/1.1/DTD/svg11.dtd">
<svg version="1.1" id="Layer_1" xmlns="http://www.w3.org/2000/svg" xmlns:xlink="http://www.w3.org/1999/xlink" x="0px" y="0px"
	 width="85px" height="170px" viewBox="0 0 85 170" enable-background="new 0 0 85 170" xml:space="preserve">
<g>
	<path fill="#E2E2E2" d="M54.833,129.975l1.309-9.432H46.085v-6.022c0-2.731,0.817-4.592,5.033-4.592l5.377-0.004v-8.436
		c-0.93-0.115-4.122-0.371-7.836-0.371c-7.753,0-13.062,4.395-13.062,12.469v6.956h-8.77v9.432h8.77v24.202h10.488v-24.202H54.833z"
		/>
</g>
<g>
	<path fill="#FFFFFF" d="M54.833,44.701l1.309-9.432H46.085v-6.022c0-2.731,0.817-4.592,5.033-4.592l5.377-0.004v-8.436
		c-0.93-0.115-4.122-0.371-7.836-0.371c-7.753,0-13.062,4.395-13.062,12.469v6.956h-8.77v9.432h8.77v24.202h10.488V44.701H54.833z"
		/>
</g>
</svg>
