<?xml version="1.0" encoding="utf-8"?>
<!-- Generator: Adobe Illustrator 16.0.0, SVG Export Plug-In . SVG Version: 6.00 Build 0)  -->
<!DOCTYPE svg PUBLIC "-//W3C//DTD SVG 1.1//EN" "http://www.w3.org/Graphics/SVG/1.1/DTD/svg11.dtd">
<svg version="1.1" id="Layer_1" xmlns="http://www.w3.org/2000/svg" xmlns:xlink="http://www.w3.org/1999/xlink" x="0px" y="0px"
	 width="85px" height="170px" viewBox="0 0 85 170" enable-background="new 0 0 85 170" xml:space="preserve">
<g>
	<path fill-rule="evenodd" clip-rule="evenodd" fill="#E2E2E2" d="M62.442,124.657h-4.514c0.329,1.276,0.523,2.61,0.523,3.989
		c0,8.812-7.142,15.953-15.951,15.953c-8.81,0-15.952-7.142-15.952-15.953c0-1.379,0.195-2.713,0.524-3.989h-4.514v21.937
		c0,1.099,0.894,1.992,1.997,1.992h35.891c1.104,0,1.997-0.894,1.997-1.992V124.657z M62.442,110.7c0-1.101-0.893-1.994-1.997-1.994
		h-5.98c-1.102,0-1.994,0.894-1.994,1.994v5.983c0,1.101,0.893,1.993,1.994,1.993h5.98c1.104,0,1.997-0.893,1.997-1.993V110.7z
		 M42.5,118.677c-5.507,0-9.971,4.463-9.971,9.97c0,5.506,4.463,9.972,9.971,9.972c5.506,0,9.971-4.466,9.971-9.972
		C52.471,123.14,48.006,118.677,42.5,118.677 M62.442,154.57H22.558c-3.302,0-5.98-2.68-5.98-5.984v-39.88
		c0-3.303,2.678-5.98,5.98-5.98h39.884c3.303,0,5.98,2.678,5.98,5.98v39.88C68.422,151.891,65.745,154.57,62.442,154.57"/>
</g>
<g>
	<path fill-rule="evenodd" clip-rule="evenodd" fill="#FFFFFF" d="M62.442,38.99h-4.514c0.329,1.276,0.523,2.61,0.523,3.989
		c0,8.812-7.142,15.953-15.951,15.953c-8.81,0-15.952-7.142-15.952-15.953c0-1.379,0.195-2.713,0.524-3.989h-4.514v21.937
		c0,1.099,0.894,1.992,1.997,1.992h35.891c1.104,0,1.997-0.894,1.997-1.992V38.99z M62.442,25.033c0-1.101-0.893-1.994-1.997-1.994
		h-5.98c-1.102,0-1.994,0.894-1.994,1.994v5.983c0,1.101,0.893,1.993,1.994,1.993h5.98c1.104,0,1.997-0.893,1.997-1.993V25.033z
		 M42.5,33.01c-5.507,0-9.971,4.463-9.971,9.97c0,5.506,4.463,9.972,9.971,9.972c5.506,0,9.971-4.466,9.971-9.972
		C52.471,37.473,48.006,33.01,42.5,33.01 M62.442,68.903H22.558c-3.302,0-5.98-2.68-5.98-5.984v-39.88c0-3.303,2.678-5.98,5.98-5.98
		h39.884c3.303,0,5.98,2.678,5.98,5.98v39.88C68.422,66.224,65.745,68.903,62.442,68.903"/>
</g>
</svg>
