<?xml version="1.0" encoding="utf-8"?>
<!-- Generator: Adobe Illustrator 16.0.0, SVG Export Plug-In . SVG Version: 6.00 Build 0)  -->
<!DOCTYPE svg PUBLIC "-//W3C//DTD SVG 1.1//EN" "http://www.w3.org/Graphics/SVG/1.1/DTD/svg11.dtd">
<svg version="1.1" id="Layer_1" xmlns="http://www.w3.org/2000/svg" xmlns:xlink="http://www.w3.org/1999/xlink" x="0px" y="0px"
	 width="85px" height="170px" viewBox="0 0 85 170" enable-background="new 0 0 85 170" xml:space="preserve">
<path fill="#FFFFFF" d="M69.902,24.253c-1.986,0.881-4.122,1.477-6.363,1.746c2.287-1.371,4.044-3.543,4.871-6.13
	c-2.141,1.271-4.511,2.192-7.035,2.688c-2.021-2.153-4.9-3.498-8.087-3.498c-6.118,0-11.079,4.96-11.079,11.079
	c0,0.868,0.098,1.713,0.287,2.524c-9.208-0.462-17.371-4.873-22.835-11.576c-0.954,1.636-1.5,3.54-1.5,5.57
	c0,3.843,1.956,7.234,4.929,9.221c-1.816-0.058-3.524-0.556-5.019-1.386c0,0.046,0,0.092,0,0.139c0,5.368,3.819,9.846,8.887,10.864
	c-0.93,0.252-1.909,0.387-2.919,0.387c-0.714,0-1.408-0.069-2.085-0.197c1.41,4.4,5.501,7.604,10.35,7.694
	c-3.792,2.971-8.569,4.742-13.758,4.742c-0.895,0-1.776-0.052-2.644-0.155c4.903,3.144,10.726,4.977,16.983,4.977
	c20.377,0,31.521-16.881,31.521-31.522c0-0.48-0.01-0.958-0.032-1.433C66.539,28.426,68.417,26.475,69.902,24.253z"/>
<path fill="#E2E2E2" d="M69.902,109.92c-1.986,0.882-4.122,1.478-6.363,1.745c2.287-1.371,4.044-3.543,4.871-6.13
	c-2.141,1.271-4.511,2.192-7.035,2.688c-2.021-2.152-4.9-3.498-8.087-3.498c-6.118,0-11.079,4.961-11.079,11.078
	c0,0.869,0.098,1.713,0.287,2.525c-9.208-0.463-17.371-4.873-22.835-11.576c-0.954,1.637-1.5,3.539-1.5,5.57
	c0,3.844,1.956,7.234,4.929,9.221c-1.816-0.057-3.524-0.556-5.019-1.385c0,0.045,0,0.092,0,0.139c0,5.367,3.819,9.846,8.887,10.863
	c-0.93,0.253-1.909,0.388-2.919,0.388c-0.714,0-1.408-0.069-2.085-0.197c1.41,4.4,5.501,7.604,10.35,7.694
	c-3.792,2.971-8.569,4.742-13.758,4.742c-0.895,0-1.776-0.053-2.644-0.155c4.903,3.144,10.726,4.978,16.983,4.978
	c20.377,0,31.521-16.881,31.521-31.522c0-0.479-0.01-0.958-0.032-1.433C66.539,114.093,68.417,112.142,69.902,109.92z"/>
</svg>
